<svg xmlns="http://www.w3.org/2000/svg" fill="none" viewBox="0 0 80 16" height="16" width="80">
<path fill="white" d="M40.41 13.76L46.74 0H48.62L48.22 0.88C48.22 0.91 47.94 1.41 47.49 2.45L46.69 4.18C44.89 8.04 42.17 13.88 41.71 14.93C41.38 15.67 40.82 15.93 40.41 15.93C39.88 15.93 39.41 15.57 39.13 14.98C38.45 13.48 34.47 4.92 33 1.76L32.94 1.62L32.59 0.87L32.19 0H34.1L34.15 0.11L40.42 13.76H40.41ZM11 7.74C11.7391 8.05884 12.3691 8.5862 12.8132 9.25754C13.2572 9.92889 13.4959 10.7151 13.5 11.52C13.5 14.34 11.26 16 7.5 16H2.38C0.91 16 0 15.11 0 13.68V0H7.16C9.07 0 10.6 0.5 11.56 1.45C11.938 1.82625 12.235 2.27583 12.4327 2.77111C12.6305 3.2664 12.7249 3.7969 12.71 4.33C12.71 5.77 12.09 6.98 11 7.74ZM1.76 8.75V13.68C1.76 14.14 1.91 14.28 2.38 14.28L7.5 14.32C10.2 14.32 11.76 13.32 11.76 11.58C11.76 10.25 10.74 8.75 7.86 8.75H1.76ZM7.5 7.08C9.18 7.08 10.97 6.38 10.97 4.39V4.35C10.97 2.68 9.53 1.68 7.13 1.68H1.76V7.08H7.5ZM19.16 13.68C19.16 14.14 19.31 14.28 19.79 14.28H29.57V16H19.79C18.34 16 17.4 15.09 17.4 13.68V0H29.12V1.67H19.16V7.07H28.26V8.75H19.16V13.68ZM53.68 13.68C53.68 14.14 53.83 14.28 54.3 14.28H64.08V16H54.3C52.85 16 51.91 15.09 51.91 13.68V0H63.64V1.67H53.68V7.07H62.78V8.75H53.68V13.68ZM70.34 14.28H80V16H70.34C68.86 16 67.95 15.11 67.95 13.68V0H69.71V13.68C69.71 14.14 69.87 14.28 70.34 14.28Z"></path>
</svg>
